Dual audio
Primary Italiano
Secondary English
 
http://img713.imageshack.us/i/1976theenforceritaengmkttj.png/
http://img196.imageshack.us/i/1976theenforceritaengmk.png/
http://img8.imageshack.us/i/1976theenforceritaengmk.png/


General
Complete name                    : C:\Dirty Harry1976 The.Enforcer ITA ENG.mkv
Format                           : Matroska
File size                        : 4.50 GiB
Duration                         : 1h 36mn
Overall bit rate                 : 6 670 Kbps
Encoded date                     : UTC 2010-02-10 13:28:38
Writing application              : mkvmerge v3.1.0 ('Happy up here') built on Jan 19 2010 12:09:24
Writing library                  : libebml v0.7.9 + libmatroska v0.8.1

Video
ID                               : 1
Format                           : AVC
Format/Info                      : Advanced Video Codec
Format profile                   : High@L5.1
Format settings, CABAC           : Yes
Format settings, ReFrames        : 5 frames
Muxing mode                      : Container profile=Unknown@5.1
Codec ID                         : V_MPEG4/ISO/AVC
Duration                         : 1h 36mn
Bit rate                         : 5 705 Kbps
Nominal bit rate                 : 5 835 Kbps
Width                            : 1 280 pixels
Height                           : 528 pixels
Display aspect ratio             : 2.40:1
Frame rate                       : 23.976 fps

Audio #1
ID                               : 2
Format                           : AC-3
Format/Info                      : Audio Coding 3
Codec ID                         : A_AC3
Duration                         : 1h 36mn
Bit rate mode                    : Constant
Bit rate                         : 192 Kbps
Channel(s)                       : 2 channels
Channel positions                : L R
Sampling rate                    : 48.0 KHz
Video delay                      : 11s 500ms
Stream size                      : 133 MiB (3%)
Title                            : ITA Ac3 192kbps

Audio #2
ID                               : 3
Format                           : AC-3
Format/Info                      : Audio Coding 3
Codec ID                         : A_AC3
Duration                         : 1h 36mn
Bit rate mode                    : Constant
Bit rate                         : 640 Kbps
Channel(s)                       : 6 channels
Channel positions                : Front: L C R, Surround: L R, LFE
Sampling rate                    : 48.0 KHz
Stream size                      : 442 MiB (10%)
